<svg xmlns="http://www.w3.org/2000/svg" viewBox="0 0 24 32" fill="none"><g clip-path="url(#clip0_123_4832)"><path d="M24 12C24 19 12 32 12 32C12 32 0 19 0 12C0 5 5.375 0 12 0C18.625 0 24 5.375 24 12Z" fill="#001E60"/><path d="M12.8954 10.5946H10.1245V8.68804H12.8954C13.2666 8.68804 13.5513 8.76939 13.7445 8.93717C13.9377 9.10495 14.0343 9.34391 14.0343 9.64897C14.0343 10.2794 13.653 10.5946 12.8954 10.5946ZM14.7817 9.65405C14.7817 9.1558 14.6139 8.75414 14.2732 8.44908C13.9326 8.14911 13.4394 7.99658 12.7988 7.99658H9.40759V11.2912H12.7988C13.4394 11.2912 13.9326 11.1387 14.2732 10.8387C14.6139 10.5387 14.7817 10.1421 14.7817 9.65405Z" fill="white"/><path d="M16.2561 16.2484C15.6206 16.7924 14.7817 17.0669 13.7445 17.0669H10.1245V15.8925H13.4547C14.1614 15.8925 14.7105 15.7399 15.102 15.4298C15.4935 15.1197 15.6918 14.6926 15.6918 14.1384C15.6918 13.5842 15.6155 13.5385 15.463 13.2995C15.3104 13.0605 15.1172 12.8775 14.8834 12.7504C15.346 12.5572 15.6968 12.3182 15.9409 12.0386C16.3273 12.242 16.6324 12.5369 16.8662 12.9233C17.095 13.3097 17.212 13.7113 17.212 14.1384C17.212 14.9976 16.8967 15.6993 16.2561 16.2484ZM14.9393 14.1384C14.9393 14.474 14.8173 14.7333 14.5732 14.9163C14.3292 15.1044 13.9885 15.1959 13.5513 15.1959H10.1245V13.0961H13.5513C14.4766 13.0961 14.9393 13.4419 14.9393 14.1384ZM9.4076 17.0669H8.06027V12.425H6.71294V11.2709H8.06027V6.8628H13.0479C13.9834 6.8628 14.7308 7.1221 15.2799 7.63561C15.8341 8.14913 16.1087 8.81517 16.1087 9.63882C16.1087 10.4625 15.8341 11.1488 15.2799 11.6624C14.7258 12.1759 13.9834 12.4352 13.0479 12.4352H9.4076V17.0771V17.0669ZM18 14.1384C18 12.9843 17.4662 12.0793 16.4036 11.4234C16.5459 11.22 16.6629 10.9506 16.7595 10.615C16.8561 10.2794 16.9018 9.95404 16.9018 9.63373C16.9018 8.99312 16.7544 8.40842 16.4595 7.87966C16.1646 7.3509 15.7223 6.93398 15.1427 6.62893C14.558 6.31879 13.8563 6.16626 13.0327 6.16626H7.33322V10.5743H6.00623V13.0961H7.33322V17.7584H13.592C14.9647 17.7584 16.0426 17.433 16.8256 16.7873C17.6085 16.1416 18 15.2569 18 14.1384Z" fill="white"/></g><defs><clipPath id="clip0_123_4832"><rect width="24" height="32" fill="white"/></clipPath></defs></svg>