<svg id="Layer_1" xmlns="http://www.w3.org/2000/svg" viewBox="0 0 342.53 330.99"><defs><style>.cls-1{fill:#fff;stroke-width:0px;}</style></defs><path class="cls-1" d="M196.83,126.46h-79.17v-54.43h79.17c10.63,0,18.7,2.39,24.19,7.15,5.5,4.77,8.25,11.55,8.25,20.34,0,17.96-10.81,26.94-32.44,26.94M250.71,99.52c0-14.29-4.86-25.75-14.57-34.36-9.72-8.61-23.73-12.92-42.06-12.92h-96.77v94.02h96.77c18.32,0,32.34-4.3,42.06-12.92,9.71-8.61,14.57-19.88,14.57-33.81"/><path class="cls-1" d="M292.77,287.83c-18.15,15.58-42.06,23.37-71.75,23.37h-103.36v-33.54h95.12c20.15,0,35.82-4.4,47.01-13.2,11.18-8.8,16.77-21.07,16.77-36.84,0-9.16-2.2-17.13-6.6-23.92-4.4-6.78-9.9-12-16.49-15.67,13.19-5.5,23.27-12.28,30.24-20.34,11,5.87,19.79,14.29,26.39,25.29,6.6,10.99,9.9,22.54,9.9,34.64,0,24.56-9.07,44.63-27.21,60.2M255.11,227.62c0,9.53-3.49,16.96-10.45,22.27-6.97,5.32-16.68,7.97-29.14,7.97h-97.87v-59.93h97.87c26.39,0,39.59,9.9,39.59,29.69M97.32,311.19h-38.49v-132.5H20.34v-32.99h38.49V19.79h142.4c26.75,0,48.01,7.34,63.78,21.99,15.76,14.67,23.64,33.73,23.64,57.18s-7.88,43.07-23.64,57.73c-15.77,14.66-37.03,21.99-63.78,21.99h-103.91v132.5ZM342.53,227.62c0-32.99-15.22-58.83-45.63-77.52,4.03-5.86,7.42-13.56,10.17-23.09,2.75-9.53,4.12-18.87,4.12-28.04,0-18.32-4.22-35-12.65-50.03-8.43-15.02-20.99-26.94-37.66-35.74C244.2,4.4,224.13,0,200.68,0H37.94v125.91H0v72.02h37.94v133.05h178.69c39.22,0,70.01-9.25,92.37-27.77,22.35-18.5,33.54-43.71,33.54-75.6"/></svg>
